<svg xmlns="http://www.w3.org/2000/svg" viewBox="0 0 510 145"  preserveAspectRatio="none">
  <rect fill="#f2f3f5" x="137.34" y="1.024" width="1" height="145"/>
  <rect fill="#f2f3f5" x="261.34" y="1.024" width="1" height="145"/>
  <rect fill="#f2f3f5" x="385.34" y="1.024" width="1" height="145"/>
  <rect fill="#f2f3f5" x="11.982" y="10.981" width="113.318" height="15" rx="7.5" ry="7.5"/>
  <rect fill="#f2f3f5" x="11.982" y="37.981" width="95.072" height="15" rx="7.5" ry="7.5"/>
  <rect fill="#f2f3f5" x="11.982" y="64.981" width="113.318" height="15" rx="7.5" ry="7.5"/>
  <rect fill="#f2f3f5" x="11.982" y="118.981" width="45.234" height="15" rx="7.5" ry="7.5"/>
  <rect fill="#f2f3f5" x="11.982" y="92.013" width="95.072" height="15" rx="7.5" ry="7.5"/>
  <rect fill="#f2f3f5" x="149.982" y="10.981" width="99.809" height="15" rx="7.5" ry="7.5"/>
  <rect fill="#f2f3f5" x="149.982" y="37.981" width="83.738" height="15" rx="7.5" ry="7.5"/>
  <rect fill="#f2f3f5" x="149.982" y="64.981" width="99.809" height="15" rx="7.5" ry="7.5"/>
  <rect fill="#f2f3f5" x="149.982" y="118.981" width="39.842" height="15" rx="7.5" ry="7.5"/>
  <rect fill="#f2f3f5" x="149.982" y="92.013" width="83.738" height="15" rx="7.5" ry="7.5"/>
  <rect fill="#f2f3f5" x="273.982" y="10.981" width="99.809" height="15" rx="7.5" ry="7.5"/>
  <rect fill="#f2f3f5" x="273.982" y="37.981" width="83.738" height="15" rx="7.5" ry="7.5"/>
  <rect fill="#f2f3f5" x="273.982" y="64.981" width="99.809" height="15" rx="7.5" ry="7.5"/>
  <rect fill="#f2f3f5" x="273.982" y="118.981" width="39.842" height="15" rx="7.5" ry="7.5"/>
  <rect fill="#f2f3f5" x="273.982" y="92.013" width="83.738" height="15" rx="7.5" ry="7.5"/>
  <rect fill="#f2f3f5" x="397.982" y="10.981" width="99.809" height="15" rx="7.5" ry="7.5"/>
  <rect fill="#f2f3f5" x="397.982" y="37.981" width="83.738" height="15" rx="7.5" ry="7.5"/>
  <rect fill="#f2f3f5" x="397.982" y="64.981" width="99.809" height="15" rx="7.5" ry="7.5"/>
  <rect fill="#f2f3f5" x="397.982" y="118.981" width="39.842" height="15" rx="7.5" ry="7.5"/>
  <rect fill="#f2f3f5" x="397.982" y="92.013" width="83.738" height="15" rx="7.5" ry="7.5"/>
</svg>
